# xmcd CD database file
#
# Track frame offsets:
#	150
#	12618
#	24402
#	37520
#	52235
#	64875
#	76508
#	90226
#	100776
#	114135
#	126125
#	138056
#
# Disc length: 2009 seconds
#
# Revision: 0
# Processed by: cddbd v1.5.2PL0 Copyright (c) Steve Scherf et al.
# Submitted via: CDex 1.51
#
DISCID=8207d70c
DTITLE=B.B.KING - The Blues
DYEAR=1958
DGENRE=Blues
TTITLE0=Why Does Everything Happen To Me
TTITLE1=Ruby Lee
TTITLE2=When My Heart Beats Like A Hammer
TTITLE3=Past Day
TTITLE4=Boogie Woogie Woman
TTITLE5=Early Every Morning
TTITLE6=I Want To Get Married
TTITLE7=That Ain't The Way To Do It
TTITLE8=Troubles, Troubles, Troubles
TTITLE9=Don't You Want A Man Like Me
TTITLE10=You Know I Go for You
TTITLE11=What Can I Do
EXTD=YEAR: 1958
EXTT0=
EXTT1=
EXTT2=
EXTT3=
EXTT4=
EXTT5=
EXTT6=
EXTT7=
EXTT8=
EXTT9=
EXTT10=
EXTT11=
PLAYORDER=
